<svg width="120" height="120" viewBox="0 0 128 128" fill="none" xmlns="http://www.w3.org/2000/svg">
<path d="M63.9997 53.3333C56.9597 53.3333 53.4237 55.5787 48.3677 63.5947L47.0664 65.7173L44.9597 69.3867L44.2077 70.7413C42.9277 73.056 41.1624 74.7573 38.1331 76.832L35.1997 78.7787C30.1864 82.1227 27.5624 84.7413 26.0957 89.2053C25.4344 91.008 25.0504 93.7547 25.0664 96.032C25.0664 105.029 31.4557 112 39.9997 112L41.2904 111.968C41.9251 111.936 42.5384 111.877 43.1784 111.787L44.5011 111.557L45.2051 111.408L46.7571 111.019L47.6211 110.779L50.6611 109.872L54.7304 108.576L57.1571 107.851C59.9837 107.051 62.1704 106.667 63.9997 106.667C65.8344 106.667 68.0157 107.056 70.8424 107.851L73.2691 108.576L77.3437 109.867L80.3784 110.779L82.0424 111.227C82.558 111.355 83.0433 111.465 83.4984 111.557L84.8211 111.787C85.4611 111.877 86.0744 111.936 86.7091 111.968L87.9997 112C96.5437 112 102.933 105.029 102.933 96C102.933 93.7227 102.544 90.992 101.829 89.0347C100.57 85.1733 98.2184 82.512 93.9357 79.2747L92.5651 78.2613L89.7491 76.2347C86.3251 73.728 84.3997 71.8293 83.0664 69.4187L81.6264 66.832L80.2824 64.528C74.8904 55.4827 71.6531 53.3333 63.9997 53.3333ZM105.493 37.3333H105.333C98.8317 37.44 92.7997 43.0187 89.8237 50.688C86.1437 60.1547 87.9677 70.528 95.5571 73.7973C96.9224 74.3787 98.3677 74.6667 99.8291 74.6667C106.394 74.6667 112.522 69.0507 115.525 61.312C119.184 51.8507 117.338 41.472 109.786 38.208C108.431 37.6304 106.967 37.3329 105.493 37.3333ZM48.1331 16C47.5357 16 47.1464 16.0107 46.6931 16.08L46.1971 16.1653C38.0264 17.264 33.4131 26.7733 34.9544 36.7253C36.4051 45.9253 42.7517 53.3333 50.5277 53.3333L51.5251 53.3067L51.9731 53.2533L52.4637 53.168C60.6397 52.0693 65.2477 42.56 63.7064 32.608C62.2664 23.3973 55.9197 16 48.1331 16Z" fill="#013F58"/>
<path d="M79.8505 16C72.0691 16 65.7331 23.4027 64.2985 32.6027C62.7518 42.56 67.3598 52.0693 75.8931 53.2267C76.4371 53.2978 76.9633 53.3333 77.4718 53.3333C84.8851 53.3333 91.0345 46.5867 92.8158 37.9573L93.0345 36.7307C94.5811 26.7733 89.9731 17.264 81.4398 16.1067C80.9134 16.0315 80.3822 15.9959 79.8505 16ZM22.4905 37.3333C21.0291 37.3333 19.5891 37.6213 18.2398 38.192C10.6345 41.472 8.81579 51.856 12.4905 61.312C15.4931 69.0507 21.6105 74.6667 28.1758 74.6667C29.6371 74.6667 31.0771 74.3787 32.4265 73.808C40.0318 70.528 41.8505 60.144 38.1758 50.688C35.1731 42.9493 29.0558 37.3333 22.4905 37.3333Z" fill="#013F58"/>
</svg>
